<?xml version="1.0" standalone="no"?>
<!DOCTYPE svg PUBLIC "-//W3C//DTD SVG 20010904//EN"
 "http://www.w3.org/TR/2001/REC-SVG-20010904/DTD/svg10.dtd">
<svg version="1.0" xmlns="http://www.w3.org/2000/svg"
 width="411.000000pt" height="411.000000pt" viewBox="0 0 411.000000 411.000000"
 preserveAspectRatio="xMidYMid meet">
<metadata>
Created by potrace 1.14, written by Peter Selinger 2001-2017
</metadata>
<g transform="translate(0.000000,411.000000) scale(0.100000,-0.100000)"
fill="#000000" stroke="none">
<path d="M342 3195 l-282 -285 2 -1142 3 -1143 322 0 c191 0 319 -3 316 -9 -4
-5 0 -6 8 0 19 11 959 12 952 0 -4 -5 0 -5 8 0 20 12 1059 12 1051 -1 -3 -6 1
-5 9 1 8 6 50 10 96 9 69 -2 85 1 99 16 9 10 21 16 27 12 5 -3 7 -2 4 4 -3 5
3 17 14 26 10 9 19 16 19 14 0 -1 37 32 82 75 45 42 85 75 90 72 4 -3 8 0 8 6
0 14 61 66 73 62 5 -1 6 2 3 6 -3 5 7 20 23 33 41 34 179 159 211 191 15 15
30 24 34 21 3 -4 6 -2 6 4 0 6 23 33 51 60 29 26 62 58 75 71 13 13 24 21 24
19 0 -2 37 33 83 77 46 45 121 115 166 156 149 134 147 132 111 125 -11 -2
-22 1 -25 6 -4 5 -12 6 -18 2 -17 -11 -29 -11 -51 0 -13 6 -16 6 -12 -2 4 -6
0 -11 -9 -11 -9 0 -14 4 -10 9 3 5 1 13 -5 16 -6 4 -10 3 -9 -2 4 -20 -2 -24
-18 -12 -11 10 -14 10 -9 2 9 -16 -17 -17 -44 -3 -13 7 -21 7 -25 0 -4 -7 -13
-6 -27 1 -15 8 -19 8 -14 0 4 -6 0 -11 -8 -11 -9 0 -16 6 -16 13 0 7 -3 8 -8
2 -4 -5 -20 -11 -35 -13 -21 -2 -27 0 -21 10 5 10 4 11 -7 1 -20 -19 -33 -16
-18 5 10 12 8 12 -10 -3 -13 -11 -26 -18 -30 -17 -40 22 -43 23 -37 13 4 -6 0
-11 -9 -11 -9 0 -14 4 -10 9 3 5 1 13 -5 16 -6 4 -9 1 -8 -6 2 -6 -3 -14 -11
-17 -9 -3 -11 0 -6 8 6 10 4 11 -6 4 -19 -12 -30 -12 -53 -1 -13 6 -16 6 -12
-2 4 -6 0 -11 -9 -11 -9 0 -14 4 -10 9 3 5 0 13 -6 17 -7 4 -9 3 -5 -4 3 -6 2
-13 -3 -16 -5 -4 -12 -2 -16 4 -4 6 -12 7 -18 3 -17 -11 -51 -10 -59 2 -5 6
-8 5 -8 -2 0 -7 -5 -13 -11 -13 -5 0 -7 5 -3 12 5 7 3 8 -6 3 -18 -11 -111
-14 -104 -4 2 4 0 11 -6 14 -6 4 -9 1 -8 -6 4 -15 -49 -19 -76 -6 -12 6 -16 6
-12 -1 7 -11 -32 -11 -51 1 -5 3 -13 3 -17 -1 -10 -10 -77 -11 -71 -1 3 4 1
11 -5 14 -6 4 -9 3 -8 -2 2 -4 -1 -9 -7 -11 -7 -1 -11 304 -13 898 l-2 900
-1143 -1 -1142 0 -283 -284z"/>
</g>
</svg>
